<svg width="12" height="12" viewBox="0 0 12 12" fill="none" xmlns="http://www.w3.org/2000/svg">
<path fill-rule="evenodd" clip-rule="evenodd" d="M10.0411 1.25514C9.85451 1.25514 9.67552 1.32928 9.54355 1.46125L1.82183 9.18298L1.4901 10.5099L2.81702 10.1782L10.5387 2.45645C10.6041 2.3911 10.6559 2.31353 10.6913 2.22815C10.7267 2.14277 10.7449 2.05126 10.7449 1.95885C10.7449 1.86644 10.7267 1.77493 10.6913 1.68955C10.6559 1.60418 10.6041 1.5266 10.5387 1.46125C10.4734 1.39591 10.3958 1.34407 10.3104 1.30871C10.2251 1.27334 10.1336 1.25514 10.0411 1.25514ZM8.65603 0.573734C9.02339 0.206378 9.52163 0 10.0411 0C10.2984 0 10.5531 0.0506672 10.7908 0.149109C11.0284 0.24755 11.2444 0.391838 11.4263 0.573734C11.6082 0.75563 11.7525 0.971572 11.8509 1.20923C11.9493 1.44689 12 1.70161 12 1.95885C12 2.21609 11.9493 2.47081 11.8509 2.70847C11.7525 2.94613 11.6082 3.16207 11.4263 3.34397L3.58163 11.1886C3.5012 11.269 3.40042 11.3261 3.29008 11.3537L0.779793 11.9812C0.565932 12.0347 0.339701 11.9721 0.183825 11.8162C0.0279483 11.6603 -0.0347141 11.4341 0.018751 11.2202L0.646322 8.70992C0.673909 8.59958 0.730967 8.4988 0.811396 8.41837L8.65603 0.573734Z" fill="white"/>
</svg>
